<svg width="72" height="72" viewBox="0 0 72 72" fill="none" xmlns="http://www.w3.org/2000/svg">
<g clip-path="url(#clip0_1_4787)">
<path d="M9.82227 13.4219H12.5135C13.015 13.4219 13.4217 13.0152 13.4217 12.5137C13.4217 12.0121 13.015 11.6055 12.5135 11.6055H9.82227C9.3207 11.6055 8.91406 12.0121 8.91406 12.5137C8.91406 13.0152 9.3207 13.4219 9.82227 13.4219Z" fill="#2D2E2E"/>
<path d="M9.82227 21.251H18.8743C19.3758 21.251 19.7825 20.8443 19.7825 20.3428C19.7825 19.8412 19.3758 19.4346 18.8743 19.4346H9.82227C9.3207 19.4346 8.91406 19.8412 8.91406 20.3428C8.91406 20.8443 9.3207 21.251 9.82227 21.251Z" fill="#2D2E2E"/>
<path d="M9.82227 17.3369H18.8743C19.3758 17.3369 19.7825 16.9303 19.7825 16.4287C19.7825 15.9271 19.3758 15.5205 18.8743 15.5205H9.82227C9.3207 15.5205 8.91406 15.9271 8.91406 16.4287C8.91406 16.9303 9.3207 17.3369 9.82227 17.3369Z" fill="#2D2E2E"/>
<path d="M31.4736 13.4219H34.1648C34.6664 13.4219 35.073 13.0152 35.073 12.5137C35.073 12.0121 34.6664 11.6055 34.1648 11.6055H31.4736C30.9721 11.6055 30.5654 12.0121 30.5654 12.5137C30.5654 13.0152 30.9721 13.4219 31.4736 13.4219Z" fill="#2D2E2E"/>
<path d="M41.4338 20.3428C41.4338 19.8412 41.0272 19.4346 40.5256 19.4346H31.4736C30.9721 19.4346 30.5654 19.8412 30.5654 20.3428C30.5654 20.8443 30.9721 21.251 31.4736 21.251H40.5256C41.0272 21.251 41.4338 20.8443 41.4338 20.3428Z" fill="#2D2E2E"/>
<path d="M31.4736 17.3369H40.5256C41.0272 17.3369 41.4338 16.9303 41.4338 16.4287C41.4338 15.9271 41.0272 15.5205 40.5256 15.5205H31.4736C30.9721 15.5205 30.5654 15.9271 30.5654 16.4287C30.5654 16.9303 30.9721 17.3369 31.4736 17.3369Z" fill="#2D2E2E"/>
<path d="M66.3755 11.5133L60.4867 5.62448C60.09 5.22754 59.5407 5 58.98 5H50.4344C49.2592 5 48.3031 5.95616 48.3031 7.13125V12.514C48.3031 13.0156 48.7098 13.4222 49.2113 13.4222C49.7129 13.4222 50.1195 13.0156 50.1195 12.514V7.13125C50.1195 6.9576 50.2608 6.81641 50.4344 6.81641H58.578V11.2907C58.578 12.466 59.5342 13.4222 60.7095 13.4222H65.1836V25.4806C65.1836 25.6542 65.0423 25.7954 64.8687 25.7954H50.4344C50.2607 25.7954 50.1195 25.6541 50.1195 25.4806V16.7643C50.1195 16.2627 49.7129 15.8561 49.2113 15.8561C48.7098 15.8561 48.3031 16.2627 48.3031 16.7643V25.4805C48.3031 26.6557 49.2593 27.6117 50.4344 27.6117H56.7432V31.9113H36.9082V27.6117H43.2172C44.3925 27.6117 45.3487 26.6556 45.3487 25.4802V13.0206C45.3487 12.4514 45.127 11.9161 44.7244 11.5135L38.8354 5.62448C38.4329 5.22196 37.8975 5.00024 37.3283 5.00024H28.7828C27.6075 5.00024 26.6513 5.9564 26.6513 7.13173V25.4803C26.6513 26.6557 27.6075 27.6118 28.7828 27.6118H35.0918V31.9114H15.2568V27.6118H21.5656C22.7408 27.6118 23.6969 26.6557 23.6969 25.4806V13.02C23.6969 12.4511 23.4752 11.916 23.0724 11.5133L17.1836 5.62448C16.7868 5.22754 16.2376 5 15.6768 5H7.13125C5.95616 5 5 5.95616 5 7.13125V16.4283C5 16.9299 5.40663 17.3365 5.9082 17.3365C6.40977 17.3365 6.81641 16.9299 6.81641 16.4283V7.13125C6.81641 6.9576 6.95772 6.81641 7.13125 6.81641H15.2752V11.2907C15.2752 12.466 16.2313 13.4222 17.4067 13.4222H21.8805V25.4806C21.8805 25.6542 21.7392 25.7954 21.5656 25.7954H7.13125C6.9576 25.7954 6.81641 25.6541 6.81641 25.4806V20.6787C6.81641 20.1772 6.40977 19.7705 5.9082 19.7705C5.40663 19.7705 5 20.1772 5 20.6787V25.4806C5 26.6558 5.95616 27.6118 7.13125 27.6118H13.4404V32.8196C13.4404 33.3212 13.847 33.7278 14.3486 33.7278H35.0918V38.9356C35.0918 39.4371 35.4984 39.8438 36 39.8438C36.5016 39.8438 36.9082 39.4371 36.9082 38.9356V33.7278H57.6514C58.153 33.7278 58.5596 33.3212 58.5596 32.8196V27.6118H64.8687C66.044 27.6118 67 26.6557 67 25.4806V13.02C67 12.4511 66.7783 11.916 66.3755 11.5133ZM42.2478 11.6058H39.0581C38.8843 11.6058 38.743 11.4645 38.743 11.2907V8.10097L42.2478 11.6058ZM28.4678 25.4803V7.13173C28.4678 6.95796 28.6092 6.81665 28.7829 6.81665H36.9267V11.2907C36.9267 12.466 37.8829 13.4222 39.0582 13.4222H43.5323V25.4803C43.5323 25.6541 43.391 25.7954 43.2172 25.7954H28.7828C28.6092 25.7953 28.4678 25.654 28.4678 25.4803ZM17.0917 11.2907V8.10121L20.5963 11.6058H17.4068C17.233 11.6058 17.0917 11.4643 17.0917 11.2907ZM60.3945 11.2907V8.10097L63.8993 11.6058H60.7095C60.5358 11.6058 60.3945 11.4643 60.3945 11.2907Z" fill="#2D2E2E"/>
<path d="M53.125 13.4219H55.8162C56.3178 13.4219 56.7244 13.0152 56.7244 12.5137C56.7244 12.0121 56.3178 11.6055 55.8162 11.6055H53.125C52.6234 11.6055 52.2168 12.0121 52.2168 12.5137C52.2168 13.0152 52.6234 13.4219 53.125 13.4219Z" fill="#2D2E2E"/>
<path d="M53.125 21.251H62.177C62.6786 21.251 63.0852 20.8443 63.0852 20.3428C63.0852 19.8412 62.6786 19.4346 62.177 19.4346H53.125C52.6234 19.4346 52.2168 19.8412 52.2168 20.3428C52.2168 20.8443 52.6234 21.251 53.125 21.251Z" fill="#2D2E2E"/>
<path d="M53.125 17.3369H62.177C62.6786 17.3369 63.0852 16.9303 63.0852 16.4287C63.0852 15.9271 62.6786 15.5205 62.177 15.5205H53.125C52.6234 15.5205 52.2168 15.9271 52.2168 16.4287C52.2168 16.9303 52.6234 17.3369 53.125 17.3369Z" fill="#2D2E2E"/>
<path d="M47.4989 45.6113H36.7476L35.1431 43.0441C34.616 42.2008 33.7077 41.6974 32.7133 41.6974H25.7247C24.5494 41.6974 23.5932 42.6535 23.5932 43.8289V45.7596C22.457 46.1403 21.6357 47.2144 21.6357 48.4777V64.1351C21.6357 65.7149 22.921 67.0002 24.5008 67.0002H38.4007C38.9023 67.0002 39.3089 66.5935 39.3089 66.092C39.3089 65.5904 38.9023 65.1838 38.4007 65.1838H24.5008C23.9226 65.1838 23.4521 64.7133 23.4521 64.1351V48.4777C23.4521 47.9002 23.9202 47.4304 24.4965 47.428C24.4982 47.428 24.4997 47.4283 24.5014 47.4283L47.4989 47.4278C48.0772 47.4278 48.5476 47.8987 48.5476 48.4777V64.1351C48.5476 64.7133 48.0772 65.1838 47.4989 65.1838H42.6511C42.1495 65.1838 41.7429 65.5904 41.7429 66.092C41.7429 66.5935 42.1495 67.0002 42.6511 67.0002H47.4989C49.0787 67.0002 50.364 65.7149 50.364 64.1351V48.4777C50.364 46.897 49.0787 45.6113 47.4989 45.6113ZM25.7246 43.5138H32.7132C33.0772 43.5138 33.4098 43.6981 33.6027 44.0068L34.6055 45.6113H25.4095V43.8288C25.4096 43.6551 25.5509 43.5138 25.7246 43.5138Z" fill="#0C93F4"/>
</g>
<defs>
<clipPath id="clip0_1_4787">
<rect width="62" height="62" fill="white" transform="translate(5 5)"/>
</clipPath>
</defs>
</svg>
